<svg xmlns="http://www.w3.org/2000/svg" xmlns:xlink="http://www.w3.org/1999/xlink" viewBox="0 0 612 612"><defs><style>.a{fill:none;}.b{fill:url(#a);}.c{clip-path:url(#b);}.d{fill:#e66040;}.e{clip-path:url(#c);}.f{fill:#f6dba7;}.g{fill:#fbdfa9;}.h{font-size:160.11px;fill:#fff;font-family:PingFangSC-Regular-GBpc-EUC-H, PingFang SC;letter-spacing:0.03em;}</style><radialGradient id="a" cx="293.19" cy="301.14" fx="-9.678896006650916" fy="257.4505593424361" r="306" gradientTransform="translate(332.05 -185.44) rotate(41.48) scale(1 1.3)" gradientUnits="userSpaceOnUse"><stop offset="0.02" stop-color="#eb5c27"/><stop offset="0.08" stop-color="#eb5c27"/><stop offset="1" stop-color="#dc1519"/></radialGradient><clipPath id="b"><circle class="a" cx="306" cy="584.09" r="219.66"/></clipPath><clipPath id="c"><circle class="a" cx="306" cy="306" r="306"/></clipPath></defs><title>meishi2</title><circle class="b" cx="306" cy="306" r="306"/><g class="c"><circle class="d" cx="306" cy="306" r="306"/></g><g class="e"><path class="f" d="M214.13,315.06c-22.54,0-43.58,10.35-59.24,29.14-15.06,18.08-23.36,41.95-23.36,67.24s8.3,49.16,23.36,67.23A85.33,85.33,0,0,0,175,496.38L159,617.29v.9a55.14,55.14,0,0,0,110.27,0v-.9l-16-120.91a85.18,85.18,0,0,0,20.07-17.71c15.06-18.07,23.35-41.95,23.35-67.23s-8.29-49.16-23.35-67.24c-15.67-18.79-36.7-29.14-59.24-29.14ZM241.79,619a27.68,27.68,0,0,1-55.34,0l14.77-112.34a72.56,72.56,0,0,0,25.79,0ZM214.13,480.46c-30.46,0-55.25-31-55.25-69s24.79-69,55.25-69,55.24,31,55.24,69-24.78,69-55.24,69ZM475.8,315.17a13.56,13.56,0,0,0-13.57,13.57v96.69a55.35,55.35,0,0,1-110.7,0V328.74a13.57,13.57,0,1,0-27.13,0v96.69A82.56,82.56,0,0,0,367.71,498L352,617.29v.9a55.14,55.14,0,0,0,110.27,0v-.9l-15.77-119.5a82.55,82.55,0,0,0,42.91-72.36V328.74a13.57,13.57,0,0,0-13.57-13.57ZM434.76,619a27.68,27.68,0,0,1-55.34,0l14.73-112.06a82.7,82.7,0,0,0,25.85-.07Zm0,0"/><path class="g" d="M384.7,439.43a13.78,13.78,0,0,0,13.78-13.78V328.74a13.79,13.79,0,1,0-27.57,0v96.91a13.79,13.79,0,0,0,13.79,13.78Zm44.79,0a13.78,13.78,0,0,0,13.79-13.78V328.74a13.79,13.79,0,1,0-27.57,0v96.91a13.78,13.78,0,0,0,13.78,13.78Zm0,0"/></g><text class="h" transform="translate(153.72 243.25)">美食</text></svg>