<svg xmlns="http://www.w3.org/2000/svg" xmlns:xlink="http://www.w3.org/1999/xlink" viewBox="0 0 612 612"><defs><style>.a{fill:none;}.b{fill:url(#a);}.c{clip-path:url(#b);}.d{fill:#5fb4e6;}.e{font-size:160.11px;fill:#fff;font-family:PingFangSC-Regular-GBpc-EUC-H, PingFang SC;letter-spacing:0.03em;}</style><radialGradient id="a" cx="293.19" cy="301.14" fx="-9.678896006651257" fy="257.45055934243857" r="306" gradientTransform="translate(332.05 -185.44) rotate(41.48) scale(1 1.3)" gradientUnits="userSpaceOnUse"><stop offset="0.03" stop-color="#56b0d8"/><stop offset="1" stop-color="#3481c4"/></radialGradient><clipPath id="b"><circle class="a" cx="306" cy="306" r="306"/></clipPath></defs><title>paotui</title><circle class="b" cx="306" cy="306" r="306"/><g class="c"><path class="d" d="M506,376.31a51.74,51.74,0,0,0-52.1-52.1H157.31a51.74,51.74,0,0,0-52.1,52.1V672.89a51.74,51.74,0,0,0,52.1,52.1H453.89a51.74,51.74,0,0,0,52.1-52.1ZM304.6,520.59c-61.12,0-111.22-50.1-111.22-111.22a10,10,0,0,1,10-10c5,0,10,5,10,10,0,50.1,41.08,91.18,91.18,91.18s91.18-41.08,91.18-91.18a10,10,0,0,1,10-10c5,0,10,5,10,10,0,61.12-50.09,111.22-111.21,111.22Zm0,0"/></g><text class="e" transform="translate(153.72 243.25)">跑腿</text></svg>