<svg xmlns="http://www.w3.org/2000/svg" xmlns:xlink="http://www.w3.org/1999/xlink" viewBox="0 0 612 612"><defs><style>.a{fill:none;}.b{fill:url(#a);}.c{clip-path:url(#b);}.d{fill:#8dd1ef;}.e{fill:#cee7f0;}.f{font-size:160.11px;fill:#fff;font-family:PingFangSC-Regular-GBpc-EUC-H, PingFang SC;letter-spacing:0.03em;}</style><radialGradient id="a" cx="293.19" cy="301.14" fx="-9.678896006651257" fy="257.45055934243857" r="306" gradientTransform="translate(332.05 -185.44) rotate(41.48) scale(1 1.3)" gradientUnits="userSpaceOnUse"><stop offset="0.03" stop-color="#56b0d8"/><stop offset="1" stop-color="#3481c4"/></radialGradient><clipPath id="b"><circle class="a" cx="306" cy="306" r="306"/></clipPath></defs><title>shangchao</title><circle class="b" cx="306" cy="306" r="306"/><g class="c"><path class="d" d="M313.29,297.76c52.15,0,96.81,31.7,114.74,76.31h24.33c-18.92-57.13-74.09-98.6-139.07-98.6s-120.16,41.47-139.07,98.6h24.33c17.93-44.61,62.59-76.31,114.74-76.31Zm204,83.2h-408A14.13,14.13,0,0,0,95,394.88v48a14.14,14.14,0,0,0,14.34,13.93h12l31.54,157.33s1.78,22.09,19.15,22.09H455.77c17.38,0,19.16-22.09,19.16-22.09L506.47,456.8H517.3a14.14,14.14,0,0,0,14.33-13.93v-48A14.12,14.12,0,0,0,517.3,381ZM252.63,576.23c0,6.31-6.85,11.43-15.29,11.43s-15.29-5.12-15.29-11.43V483.41c0-6.32,6.84-11.43,15.29-11.43s15.29,5.11,15.29,11.43Zm75.95,0c0,6.31-6.85,11.43-15.28,11.43S298,582.54,298,576.23V483.41c0-6.32,6.83-11.43,15.29-11.43s15.28,5.11,15.28,11.43Zm76,0c0,6.31-6.84,11.43-15.3,11.43S374,582.54,374,576.23V483.41c0-6.32,6.84-11.43,15.28-11.43s15.3,5.11,15.3,11.43Zm0,7.76M517.3,381h-408A14.13,14.13,0,0,0,95,394.88v48a14.14,14.14,0,0,0,14.34,13.93h408a14.14,14.14,0,0,0,14.33-13.93v-48A14.12,14.12,0,0,0,517.3,381Z"/><path class="e" d="M404.54,584,517.3,381h-408A14.13,14.13,0,0,0,95,394.88v48a14.14,14.14,0,0,0,14.34,13.93h408a14.14,14.14,0,0,0,14.33-13.93v-48A14.12,14.12,0,0,0,517.3,381Z"/></g><text class="f" transform="translate(153.72 243.25)">商超</text></svg>