<svg xmlns="http://www.w3.org/2000/svg" xmlns:xlink="http://www.w3.org/1999/xlink" viewBox="0 0 612 612"><defs><style>.a{fill:none;}.b{fill:url(#a);}.c{clip-path:url(#b);}.d,.f{fill:#fff;}.e{fill:#e7bc36;}.f{font-size:160.11px;font-family:PingFangSC-Regular-GBpc-EUC-H, PingFang SC;letter-spacing:0.03em;}</style><radialGradient id="a" cx="293.19" cy="301.14" fx="-9.678896006651257" fy="257.45055934243857" r="306" gradientTransform="translate(332.05 -185.44) rotate(41.48) scale(1 1.3)" gradientUnits="userSpaceOnUse"><stop offset="0.03" stop-color="#eba835"/><stop offset="1" stop-color="#df770e"/></radialGradient><clipPath id="b"><circle class="a" cx="306" cy="306" r="306"/></clipPath></defs><title>shuiguo</title><circle class="b" cx="306" cy="306" r="306"/><g class="c"><path class="d" d="M57.93,534.19c0,136.79,110.9,247.67,247.68,247.67S553.29,671,553.29,534.19,442.4,286.51,305.61,286.51,57.93,397.4,57.93,534.19Zm0,0"/><path class="e" d="M259.47,506.5,144.11,391.14c-3.08-3.08-9.23-3.08-12.31,0C104.11,425,87.2,465,82.58,511.11c0,4.62,3.08,9.23,9.23,9.23h163c6.15,1.54,10.77-7.69,4.62-13.84Zm-6.15,40H91.81c-4.61,0-9.23,4.62-9.23,9.23,4.62,44.61,23.07,86.14,49.22,120a7.21,7.21,0,0,0,12.31,0L259.47,560.33c6.15-4.61,1.53-13.84-6.15-13.84Zm64.6-226.11V483.43c0,7.69,9.23,10.76,15.38,6.15L448.66,374.22c3.08-3.08,3.08-9.23,0-12.31-33.84-27.68-73.83-44.6-120-49.22-6.15-1.54-10.76,1.54-10.76,7.69ZM293.31,481.89V320.38c0-4.61-4.62-9.23-9.23-9.23-44.61,4.62-86.14,23.08-120,49.22a7.21,7.21,0,0,0,0,12.31L279.46,488c4.62,6.15,13.85,1.54,13.85-6.15Zm64.6,40H521c4.61,0,9.22-4.61,9.22-9.23-4.61-44.6-23.07-86.14-49.22-120a7.2,7.2,0,0,0-12.3,0L351.76,506.5a8.88,8.88,0,0,0,6.15,15.38Zm-6.15,40L467.12,677.23c3.08,3.08,9.23,3.08,12.3,0,27.69-33.83,44.61-73.83,49.23-120,0-4.61-3.08-9.23-9.23-9.23H357.91c-7.69-1.54-12.31,7.69-6.15,13.84Zm-73.83,18.46L162.56,695.69c-3.07,3.08-3.07,9.23,0,12.31,33.84,27.69,73.84,44.6,120,49.22,4.62,0,9.23-3.08,9.23-9.23V586.49c1.54-7.7-7.69-12.31-13.84-6.16Zm40,6.16v163c0,4.61,4.61,9.23,9.23,9.23,44.6-4.62,86.13-23.07,120-49.22a7.2,7.2,0,0,0,0-12.31L333.3,580.33a8.88,8.88,0,0,0-15.38,6.16Zm0,0"/></g><text class="f" transform="translate(153.72 243.25)">水果</text></svg>