<svg xmlns="http://www.w3.org/2000/svg" xmlns:xlink="http://www.w3.org/1999/xlink" viewBox="0 0 612 612"><defs><style>.a{fill:none;}.b{fill:url(#a);}.c{clip-path:url(#b);}.d{fill:#bee1d6;}.e,.g{fill:#fff;}.f{fill:#d75453;}.g{font-size:160.11px;font-family:PingFangSC-Regular-GBpc-EUC-H, PingFang SC;letter-spacing:0.03em;}</style><radialGradient id="a" cx="293.19" cy="301.14" fx="-9.678896006651257" fy="257.45055934243857" r="306" gradientTransform="translate(332.05 -185.44) rotate(41.48) scale(1 1.3)" gradientUnits="userSpaceOnUse"><stop offset="0.03" stop-color="#55ba95"/><stop offset="1" stop-color="#1bafbc"/></radialGradient><clipPath id="b"><circle class="a" cx="306" cy="306" r="306"/></clipPath></defs><title>yaodian</title><circle class="b" cx="306" cy="306" r="306"/><g class="c"><path class="d" d="M469,423.39H157a15.2,15.2,0,1,0,0,30.1H469a15.2,15.2,0,0,0,0-30.1Zm-66-90.32A20.08,20.08,0,0,0,383,313H242.45a20.07,20.07,0,0,0-20.06,20.07v10H403ZM262.53,554h34.41v35a15.2,15.2,0,1,0,30.1,0V554h35.84a15.2,15.2,0,0,0,0-30.1H327.61V488.58a15.2,15.2,0,0,0-30.11,0v35h-35a15.2,15.2,0,1,0,0,30.11ZM473.27,684.3H152.14A40.14,40.14,0,0,1,112,644.16V383.25a40.14,40.14,0,0,1,40.14-40.14h40.14V323a40.13,40.13,0,0,1,40.14-40.15H393A40.15,40.15,0,0,1,433.12,323v20.07h40.15a40.14,40.14,0,0,1,40.14,40.14V644.16A40.14,40.14,0,0,1,473.27,684.3Zm0,0"/><path class="e" d="M112.19,383.25a40.14,40.14,0,0,1,40.14-40.14h40.14V323a40.15,40.15,0,0,1,40.15-40.15H393.18A40.15,40.15,0,0,1,433.32,323v20.07h40.14a40.14,40.14,0,0,1,40.14,40.14Z"/><path class="f" d="M262.53,554h34.41v35a15.2,15.2,0,1,0,30.1,0V554h35.84a15.2,15.2,0,0,0,0-30.1H327.61V488.58a15.2,15.2,0,0,0-30.11,0v35h-35a15.2,15.2,0,1,0,0,30.11Z"/></g><text class="g" transform="translate(153.72 243.25)">药店</text></svg>